<?xml version="1.0" standalone="no"?>
<!DOCTYPE svg PUBLIC "-//W3C//DTD SVG 20010904//EN"
 "http://www.w3.org/TR/2001/REC-SVG-20010904/DTD/svg10.dtd">
<svg version="1.0" xmlns="http://www.w3.org/2000/svg"
 width="700.000000pt" height="700.000000pt" viewBox="0 0 700.000000 700.000000"
 preserveAspectRatio="xMidYMid meet">
<metadata>
Created by potrace 1.14, written by Peter Selinger 2001-2017
</metadata>
<g transform="translate(0.000000,700.000000) scale(0.100000,-0.100000)"
fill="#000000" stroke="none">
<path d="M3417 6574 c-1 -1 -51 -4 -112 -8 -60 -3 -121 -8 -135 -10 -14 -3
-47 -7 -75 -10 -288 -31 -656 -145 -960 -298 -314 -158 -540 -322 -795 -578
-242 -241 -402 -459 -555 -753 -198 -383 -308 -769 -340 -1197 -6 -84 -6 -367
0 -440 20 -239 78 -553 125 -675 9 -24 6 -32 -29 -72 -173 -196 -167 -498 15
-688 98 -104 226 -157 374 -158 l95 0 75 -95 c593 -751 1497 -1180 2455 -1166
204 3 302 12 495 45 1126 197 2054 1014 2399 2114 49 157 92 345 106 462 3 26
8 57 10 68 20 96 27 478 12 660 -10 122 -51 363 -83 490 -60 234 -203 587
-305 752 l-21 33 27 54 c41 83 55 150 51 245 -4 91 -6 101 -30 168 -54 151
-214 286 -377 320 -66 14 -188 8 -248 -12 -49 -16 -51 -16 -73 5 -70 67 -306
238 -431 312 -216 128 -512 256 -727 314 -83 23 -201 52 -235 58 -109 20 -146
26 -190 31 -27 4 -60 8 -73 10 -68 11 -435 27 -445 19z"/>
</g>
</svg>
